<svg width="21" height="20" viewBox="0 0 21 20" fill="none" xmlns="http://www.w3.org/2000/svg">
<path d="M19.3741 0H0.807253C0.360741 0 0 0.3575 0 0.8V19.2C0 19.6425 0.360741 20 0.807253 20H19.3741C19.8206 20 20.1813 19.6425 20.1813 19.2V0.8C20.1813 0.3575 19.8206 0 19.3741 0ZM12.2728 5.9725H15.7641V6.815H12.2728V5.9725ZM10.0907 12.92C9.92736 13.2272 9.69417 13.4925 9.40954 13.695C9.11186 13.9 8.7814 14.05 8.43075 14.1375C8.06388 14.2349 7.68543 14.2829 7.30564 14.28H3.1281V5.7525H7.18959C7.60079 5.7525 7.97414 5.79 8.3147 5.86C8.65274 5.93 8.94032 6.05 9.1825 6.2125C9.42215 6.375 9.61135 6.5925 9.74505 6.8625C9.87623 7.13 9.94434 7.465 9.94434 7.8625C9.94434 8.2925 9.84596 8.6475 9.64919 8.935C9.4499 9.2225 9.16232 9.455 8.77131 9.6375C9.30359 9.7875 9.6946 10.055 9.95191 10.43C10.2143 10.81 10.3429 11.265 10.3429 11.8C10.3429 12.235 10.2597 12.6075 10.0907 12.92ZM17.1238 11.6H12.6234C12.6234 12.085 12.7924 12.55 13.0472 12.8C13.3045 13.0475 13.6728 13.1725 14.1547 13.1725C14.5028 13.1725 14.7979 13.085 15.0502 12.9125C15.3 12.74 15.4513 12.5575 15.5068 12.3675H17.0154C16.7732 13.11 16.4049 13.64 15.9054 13.96C15.411 14.28 14.8055 14.44 14.1017 14.44C13.6098 14.44 13.1683 14.36 12.7723 14.2075C12.3913 14.06 12.0482 13.835 11.7657 13.545C11.4871 13.2472 11.2718 12.8969 11.1325 12.515C10.9786 12.0925 10.903 11.6475 10.908 11.2C10.908 10.7375 10.9862 10.3075 11.1376 9.9075C11.4277 9.13 12.0306 8.5075 12.8 8.185C13.2112 8.015 13.6527 7.93 14.0992 7.935C14.6289 7.935 15.0881 8.035 15.4866 8.24C15.8704 8.43576 16.2035 8.71631 16.4604 9.06C16.7152 9.4025 16.8943 9.7925 17.0078 10.2325C17.1163 10.665 17.1541 11.12 17.1238 11.6ZM14.0462 9.21C13.7737 9.21 13.5442 9.2575 13.3676 9.35C13.191 9.4425 13.0447 9.5575 12.9337 9.69C12.828 9.81793 12.7499 9.96598 12.7041 10.125C12.6638 10.2575 12.636 10.3925 12.6259 10.53H15.4135C15.3731 10.0975 15.2218 9.7775 15.0199 9.5525C14.808 9.33 14.4675 9.21 14.0462 9.21ZM7.77737 8.9575C7.99685 8.8 8.1028 8.54 8.1028 8.1825C8.11037 8.0125 8.07505 7.845 7.99937 7.6925C7.93126 7.57 7.83035 7.4675 7.70674 7.395C7.57857 7.31797 7.43622 7.26698 7.28798 7.245C7.12653 7.215 6.96255 7.2 6.8011 7.2025H5.02767V9.195H6.94742C7.27789 9.1975 7.5579 9.1175 7.77737 8.9575ZM8.07505 10.7575C7.82783 10.57 7.49736 10.4775 7.08616 10.4775H5.02262V12.8275H7.0458C7.235 12.8275 7.40907 12.81 7.57808 12.775C7.7471 12.74 7.89846 12.68 8.02712 12.595C8.15578 12.5125 8.2592 12.4 8.33741 12.255C8.41309 12.11 8.45093 11.925 8.45093 11.7025C8.45093 11.26 8.32479 10.9475 8.07505 10.7575Z" fill="#8192B1"/>
</svg>
