<svg width="21" height="20" viewBox="0 0 21 20" fill="none" xmlns="http://www.w3.org/2000/svg">
<path d="M19.3741 0H0.807253C0.360741 0 0 0.3575 0 0.8V19.2C0 19.6425 0.360741 20 0.807253 20H19.3741C19.8206 20 20.1813 19.6425 20.1813 19.2V0.8C20.1813 0.3575 19.8206 0 19.3741 0ZM17.0431 5.8375H15.4311C14.1673 5.8375 13.9226 6.4325 13.9226 7.3075V9.235H16.9397L16.5462 12.2525H13.9226V20H10.7768V12.255H8.14568V9.235H10.7768V7.01C10.7768 4.4275 12.3686 3.02 14.6945 3.02C15.8095 3.02 16.7656 3.1025 17.0456 3.14V5.8375H17.0431Z" fill="#8192B1"/>
</svg>
