<svg width="21" height="20" viewBox="0 0 21 20" fill="none" xmlns="http://www.w3.org/2000/svg">
<path fill-rule="evenodd" clip-rule="evenodd" d="M2.49569e-07 1.67091C2.49569e-07 1.22776 0.177638 0.802756 0.493835 0.4894C0.810032 0.176044 1.23889 2.22756e-06 1.68606 2.22756e-06H18.4934C18.715 -0.000356456 18.9345 0.0426049 19.1394 0.126426C19.3442 0.210248 19.5303 0.333284 19.6871 0.48849C19.8439 0.643696 19.9682 0.828024 20.053 1.03092C20.1378 1.23382 20.1814 1.4513 20.1813 1.67091V18.3273C20.1816 18.5469 20.1381 18.7645 20.0534 18.9675C19.9687 19.1705 19.8445 19.3549 19.6878 19.5103C19.5311 19.6656 19.3451 19.7889 19.1403 19.8729C18.9355 19.9569 18.716 20.0001 18.4943 20H1.68606C1.46456 20 1.24524 19.9568 1.04062 19.8727C0.835998 19.7887 0.650087 19.6655 0.49351 19.5103C0.336934 19.355 0.212759 19.1707 0.12808 18.9679C0.043402 18.7651 -0.000120258 18.5477 2.49569e-07 18.3282V1.67091ZM7.98813 7.62546H10.7209V8.98546C11.1153 8.20364 12.1244 7.5 13.6407 7.5C16.5478 7.5 17.2367 9.05727 17.2367 11.9145V17.2073H14.2948V12.5655C14.2948 10.9382 13.9003 10.02 12.8986 10.02C11.5089 10.02 10.9309 11.01 10.9309 12.5655V17.2073H7.98813V7.62546ZM2.9428 17.0827H5.88561V7.5H2.9428V17.0818V17.0827ZM6.30666 4.37455C6.31221 4.62425 6.26737 4.87254 6.17478 5.10483C6.0822 5.33713 5.94372 5.54876 5.76748 5.7273C5.59124 5.90585 5.3808 6.0477 5.14849 6.14455C4.91618 6.2414 4.66669 6.29129 4.41466 6.29129C4.16264 6.29129 3.91315 6.2414 3.68084 6.14455C3.44853 6.0477 3.23808 5.90585 3.06184 5.7273C2.88561 5.54876 2.74713 5.33713 2.65454 5.10483C2.56195 4.87254 2.51712 4.62425 2.52266 4.37455C2.53356 3.88441 2.73767 3.41799 3.09131 3.07517C3.44494 2.73235 3.91997 2.54038 4.41466 2.54038C4.90936 2.54038 5.38439 2.73235 5.73802 3.07517C6.09165 3.41799 6.29577 3.88441 6.30666 4.37455Z" fill="#8192B1"/>
</svg>
