<svg width="21" height="20" viewBox="0 0 21 20" fill="none" xmlns="http://www.w3.org/2000/svg">
<path d="M10.0907 7.61875C9.61546 7.61893 9.15098 7.75873 8.75596 8.0205C8.36093 8.28226 8.05309 8.65422 7.87137 9.08935C7.68964 9.52449 7.64219 10.0032 7.735 10.4651C7.82782 10.927 8.05674 11.3512 8.39281 11.6841C8.72889 12.017 9.15704 12.2438 9.62312 12.3356C10.0892 12.4274 10.5723 12.3802 11.0113 12.1999C11.4503 12.0196 11.8255 11.7144 12.0895 11.3229C12.3535 10.9313 12.4944 10.4709 12.4944 10C12.4939 9.36844 12.2405 8.7629 11.7898 8.31641C11.3391 7.86992 10.7279 7.61899 10.0907 7.61875ZM15.7085 5.78839C15.5862 5.48118 15.4015 5.20215 15.1659 4.96862C14.9302 4.73509 14.6486 4.55203 14.3386 4.4308C13.3926 4.06071 11.1403 4.14375 10.0907 4.14375C9.04105 4.14375 6.79092 4.05759 5.84222 4.4308C5.53222 4.55203 5.25066 4.73509 5.01501 4.96862C4.77936 5.20215 4.59465 5.48118 4.47232 5.78839C4.09933 6.72589 4.18267 8.96027 4.18267 9.99955C4.18267 11.0388 4.09933 13.2705 4.47413 14.2112C4.59645 14.5184 4.78117 14.7974 5.01682 15.0309C5.25247 15.2645 5.53402 15.4475 5.84402 15.5688C6.79002 15.9388 9.0424 15.8558 10.0925 15.8558C11.1425 15.8558 13.3917 15.942 14.3404 15.5688C14.6504 15.4475 14.932 15.2645 15.1677 15.0309C15.4033 14.7974 15.588 14.5184 15.7103 14.2112C16.0865 13.2737 16 11.0393 16 10C16 8.96071 16.0865 6.72946 15.7103 5.78884L15.7085 5.78839ZM10.0907 13.6607C9.36007 13.6607 8.6459 13.446 8.03844 13.0438C7.43098 12.6415 6.95752 12.0698 6.67794 11.4009C6.39836 10.732 6.3252 9.99594 6.46773 9.28583C6.61026 8.57572 6.96207 7.92344 7.47868 7.41148C7.99528 6.89952 8.65347 6.55088 9.37001 6.40963C10.0866 6.26838 10.8293 6.34087 11.5043 6.61794C12.1792 6.89501 12.7561 7.36421 13.162 7.96622C13.5679 8.56822 13.7846 9.27598 13.7846 10C13.7852 10.4809 13.69 10.9572 13.5046 11.4016C13.3192 11.846 13.0471 12.2498 12.704 12.5898C12.3608 12.9299 11.9534 13.1995 11.505 13.3833C11.0565 13.567 10.5759 13.6613 10.0907 13.6607ZM13.9368 7.04018C13.7663 7.04027 13.5995 6.99023 13.4577 6.89639C13.3158 6.80256 13.2052 6.66914 13.1399 6.51301C13.0746 6.35689 13.0575 6.18507 13.0907 6.01929C13.1239 5.85351 13.206 5.70122 13.3265 5.58167C13.4471 5.46213 13.6007 5.38071 13.768 5.3477C13.9353 5.31469 14.1086 5.33159 14.2662 5.39625C14.4238 5.46091 14.5585 5.57043 14.6532 5.71095C14.748 5.85148 14.7986 6.0167 14.7986 6.18571C14.7991 6.29795 14.7772 6.40918 14.7342 6.51301C14.6912 6.61685 14.6279 6.71125 14.548 6.7908C14.4681 6.87035 14.3732 6.93349 14.2686 6.97659C14.164 7.01969 14.0519 7.04191 13.9386 7.04196L13.9368 7.04018ZM18.019 0H2.16228C1.58881 0 1.03883 0.225765 0.633318 0.627628C0.227811 1.02949 0 1.57454 0 2.14286L0 17.8571C0 18.4255 0.227811 18.9705 0.633318 19.3724C1.03883 19.7742 1.58881 20 2.16228 20H18.019C18.5925 20 19.1425 19.7742 19.548 19.3724C19.9535 18.9705 20.1813 18.4255 20.1813 17.8571V2.14286C20.1813 1.57454 19.9535 1.02949 19.548 0.627628C19.1425 0.225765 18.5925 0 18.019 0ZM17.2478 12.9464C17.1897 14.0906 16.9262 15.1045 16.0833 15.9375C15.2405 16.7705 14.2184 17.0371 13.0652 17.0915C11.8754 17.158 8.30858 17.158 7.11887 17.0915C5.9643 17.0339 4.94487 16.7723 4.10068 15.9375C3.25649 15.1027 2.99116 14.0884 2.9362 12.9464C2.86908 11.767 2.86908 8.2317 2.9362 7.05357C2.99431 5.90938 3.25469 4.89554 4.10068 4.0625C4.94667 3.22946 5.9688 2.96607 7.11887 2.91161C8.30858 2.84509 11.8754 2.84509 13.0652 2.91161C14.2197 2.9692 15.2423 3.2308 16.0833 4.06563C16.9244 4.90045 17.1929 5.91473 17.2478 7.05893C17.3149 8.23393 17.3149 11.7661 17.2478 12.9464Z" fill="#8192B1"/>
</svg>
